<?xml version="1.0" standalone="no"?>
<!DOCTYPE svg PUBLIC "-//W3C//DTD SVG 20010904//EN"
 "http://www.w3.org/TR/2001/REC-SVG-20010904/DTD/svg10.dtd">
<svg version="1.0" xmlns="http://www.w3.org/2000/svg"
 width="1000.000000pt" height="1000.000000pt" viewBox="0 0 1000.000000 1000.000000"
 preserveAspectRatio="xMidYMid meet">
<metadata>
Created by potrace 1.11, written by Peter Selinger 2001-2013
</metadata>
<g transform="translate(0.000000,1000.000000) scale(0.100000,-0.100000)"
fill="#000000" stroke="none">
<path d="M2253 9986 c-88 -28 -178 -109 -223 -201 l-25 -50 0 -4735 0 -4735
29 -58 c35 -68 118 -150 183 -180 l48 -22 2735 0 2735 0 48 22 c65 30 148 112
183 180 l29 58 0 4735 0 4735 -29 58 c-35 68 -118 150 -183 180 l-48 22 -2720
2 c-2218 1 -2728 -1 -2762 -11z m5479 -134 c53 -26 102 -77 127 -131 15 -33
16 -418 16 -4721 0 -4303 -1 -4688 -16 -4721 -25 -54 -74 -105 -127 -131 l-47
-23 -2685 0 -2685 0 -47 23 c-53 26 -102 77 -127 131 -15 33 -16 419 -19 4691
-1 3271 1 4670 8 4707 20 94 99 174 191 192 24 5 1225 8 2704 7 l2660 -1 47
-23z"/>
<path d="M2666 9734 c-164 -60 -219 -271 -103 -394 l32 -35 -43 -40 c-128
-116 -134 -302 -13 -425 115 -118 297 -118 412 0 121 123 116 306 -11 423
l-45 42 28 30 c49 51 62 84 62 165 0 64 -4 82 -28 122 -61 105 -183 152 -291
112z m126 -84 c105 -30 142 -178 64 -256 -139 -139 -356 56 -229 207 45 53 95
68 165 49z m66 -432 c49 -33 92 -114 92 -172 -1 -107 -99 -206 -205 -206 -106
0 -205 99 -205 205 0 76 54 159 125 191 48 23 145 13 193 -18z"/>
<path d="M2721 8633 c-10 -21 -61 -96 -112 -168 -112 -157 -147 -230 -155
-317 -8 -76 9 -118 59 -148 71 -44 161 -8 187 75 8 24 9 17 5 -32 -3 -43 -14
-82 -35 -123 -16 -33 -30 -64 -30 -70 0 -6 40 -10 105 -10 58 0 105 4 105 9 0
5 -14 39 -31 75 -21 45 -32 86 -35 129 -3 49 -2 55 5 28 29 -110 172 -134 232
-38 17 27 20 43 15 100 -7 92 -42 165 -156 324 -51 70 -101 145 -111 165 -11
21 -21 38 -24 38 -3 0 -13 -17 -24 -37z"/>
<path d="M4284 7798 c-31 -62 -72 -123 -190 -284 -136 -187 -185 -301 -188
-433 -1 -68 2 -82 26 -118 54 -82 164 -105 243 -52 37 26 75 85 75 117 0 12 5
24 11 28 9 5 10 -12 5 -62 -10 -99 -23 -140 -67 -220 -21 -39 -39 -74 -39 -78
0 -3 68 -6 150 -6 95 0 150 4 150 10 0 6 -18 45 -39 88 -40 78 -62 163 -60
236 l0 41 14 -43 c42 -136 187 -185 285 -96 54 49 64 79 58 182 -9 144 -38
202 -251 497 -48 66 -100 148 -117 183 -17 34 -33 62 -35 62 -3 0 -17 -24 -31
-52z"/>
<path d="M5650 7788 c-17 -35 -69 -117 -117 -183 -213 -295 -242 -353 -251
-497 -6 -103 4 -133 58 -182 98 -89 243 -40 285 96 l14 43 0 -41 c2 -73 -20
-158 -60 -236 -21 -43 -39 -82 -39 -88 0 -6 55 -10 150 -10 83 0 150 3 150 6
0 4 -18 39 -39 78 -44 80 -57 121 -67 220 -5 50 -4 67 5 62 6 -4 11 -16 11
-28 0 -32 38 -91 75 -117 79 -53 189 -30 243 52 24 36 27 50 26 118 -3 132
-52 246 -188 433 -118 161 -159 222 -190 284 -14 28 -28 52 -31 52 -2 0 -18
-28 -35 -62z"/>
<path d="M4284 6218 c-31 -61 -104 -172 -205 -308 -121 -164 -170 -281 -173
-409 -1 -69 2 -82 27 -120 71 -107 229 -105 292 3 14 24 25 52 25 64 0 11 5
24 12 28 8 5 9 -11 4 -62 -10 -98 -22 -139 -67 -221 -21 -40 -39 -75 -39 -78
0 -3 68 -5 150 -5 107 0 150 3 150 12 0 6 -16 40 -36 75 -37 67 -64 168 -63
243 l0 45 18 -53 c22 -65 51 -97 107 -118 82 -31 171 1 213 77 16 27 21 54 21
105 0 132 -49 250 -171 414 -105 141 -189 267 -211 316 -10 24 -21 44 -23 44
-3 0 -17 -24 -31 -52z"/>
<path d="M5662 6226 c-22 -49 -106 -175 -211 -316 -122 -164 -171 -282 -171
-414 0 -51 5 -78 21 -105 42 -76 131 -108 213 -77 56 21 85 53 107 118 l18 53
0 -45 c1 -75 -26 -176 -63 -243 -20 -35 -36 -69 -36 -75 0 -9 43 -12 150 -12
83 0 150 2 150 5 0 3 -18 38 -39 78 -45 82 -57 123 -67 221 -5 51 -4 67 4 62
7 -4 12 -17 12 -28 0 -12 11 -40 25 -64 63 -108 221 -110 292 -3 25 38 28 51
27 120 -3 128 -52 245 -173 409 -101 136 -174 247 -205 308 -14 28 -28 52 -31
52 -2 0 -13 -20 -23 -44z"/>
<path d="M4160 4885 c0 -3 18 -38 39 -78 45 -82 57 -123 67 -221 5 -51 4 -67
-4 -62 -7 4 -12 17 -12 28 0 12 -11 40 -25 64 -63 108 -221 110 -292 3 -25
-38 -28 -51 -27 -120 3 -128 52 -245 173 -409 101 -136 174 -247 205 -307 14
-29 28 -53 31 -53 2 0 13 20 23 44 22 49 106 175 211 316 122 164 171 282 171
414 0 51 -5 78 -21 105 -42 76 -131 108 -213 77 -56 -21 -85 -53 -107 -118
l-18 -53 0 45 c-1 75 26 176 63 243 20 35 36 69 36 75 0 9 -43 12 -150 12 -82
0 -150 -2 -150 -5z"/>
<path d="M5540 4878 c0 -6 16 -40 36 -75 37 -67 64 -168 63 -243 l0 -45 -18
53 c-22 65 -51 97 -107 118 -82 31 -171 -1 -213 -77 -16 -27 -21 -54 -21 -105
0 -132 49 -250 171 -414 105 -141 189 -267 211 -316 10 -24 21 -44 23 -44 3 0
17 24 31 53 31 60 104 171 205 307 121 164 170 281 173 409 1 69 -2 82 -27
120 -71 107 -229 105 -292 -3 -14 -24 -25 -52 -25 -64 0 -11 -5 -24 -12 -28
-8 -5 -9 11 -4 62 10 98 22 139 67 221 21 40 39 75 39 78 0 3 -67 5 -150 5
-107 0 -150 -3 -150 -12z"/>
<path d="M4160 3304 c0 -4 18 -39 39 -78 44 -80 57 -121 67 -220 5 -50 4 -67
-5 -62 -6 4 -11 16 -11 28 0 32 -38 91 -75 117 -79 53 -189 30 -243 -52 -24
-36 -27 -50 -26 -118 3 -132 52 -246 188 -433 118 -161 159 -222 190 -283 14
-29 28 -53 31 -53 2 0 18 28 35 63 17 34 69 116 117 182 213 295 242 353 251
497 6 103 -4 133 -58 182 -98 89 -243 40 -285 -96 l-14 -43 0 41 c-2 73 20
158 60 236 21 43 39 82 39 88 0 6 -55 10 -150 10 -82 0 -150 -3 -150 -6z"/>
<path d="M5540 3300 c0 -6 18 -45 39 -88 40 -78 62 -163 60 -236 l0 -41 -14
43 c-42 136 -187 185 -285 96 -54 -49 -64 -79 -58 -182 9 -144 38 -202 251
-497 48 -66 100 -148 117 -182 17 -35 33 -63 35 -63 3 0 17 24 31 53 31 61 72
122 190 283 136 187 185 301 188 433 1 68 -2 82 -26 118 -54 82 -164 105 -243
52 -37 -26 -75 -85 -75 -117 0 -12 -5 -24 -11 -28 -9 -5 -10 12 -5 62 10 99
23 140 67 220 21 39 39 74 39 78 0 3 -67 6 -150 6 -95 0 -150 -4 -150 -10z"/>
<path d="M7150 2151 c0 -5 14 -39 31 -75 21 -45 32 -86 35 -129 3 -49 2 -55
-5 -28 -29 110 -172 134 -232 38 -17 -27 -20 -43 -15 -100 7 -92 42 -165 156
-324 51 -70 101 -145 111 -165 11 -21 21 -38 24 -38 3 0 13 17 24 38 10 20 61
96 112 167 112 157 147 230 155 317 8 76 -9 118 -59 148 -71 44 -161 8 -187
-75 -8 -24 -9 -17 -5 32 3 43 14 82 35 123 16 33 30 64 30 70 0 6 -40 10 -105
10 -58 0 -105 -4 -105 -9z"/>
<path d="M7145 1225 c-200 -81 -246 -340 -85 -488 l45 -42 -28 -30 c-49 -51
-62 -84 -62 -165 0 -64 4 -82 28 -122 61 -105 179 -151 288 -113 166 59 223
271 106 395 l-32 35 43 40 c128 116 134 302 13 425 -85 87 -203 111 -316 65z
m183 -81 c76 -32 131 -111 132 -190 0 -58 -42 -136 -92 -170 -36 -25 -50 -29
-113 -29 -61 0 -78 4 -112 27 -48 32 -93 114 -93 170 0 142 151 246 278 192z
m4 -510 c84 -43 103 -163 37 -239 -60 -68 -156 -71 -221 -6 -128 129 21 328
184 245z"/>
</g>
</svg>
